<svg xmlns="http://www.w3.org/2000/svg" version="1.1" xmlns:xlink="http://www.w3.org/1999/xlink" xmlns:svgjs="http://svgjs.com/svgjs" width="1440" height="560" preserveAspectRatio="none" viewBox="0 0 1440 560"><g mask="url(&quot;#SvgjsMask2318&quot;)" fill="none"><rect width="1440" height="560" x="0" y="0" fill="url(#SvgjsLinearGradient2319)"></rect><path d="M130.46 87.63L209.27 133.13L209.27 224.13L130.46 269.63L51.65 224.13L51.65 133.13zM51.65 224.13L130.46 269.63L130.46 360.63L51.65 406.13L-27.16 360.63L-27.16 269.63zM51.65 497.13L130.46 542.63L130.46 633.63L51.65 679.13L-27.16 633.63L-27.16 542.63zM209.27 497.13L288.08 542.63L288.08 633.63L209.27 679.13L130.46 633.63L130.46 542.63zM682.13 -48.87L760.94 -3.37L760.94 87.63L682.13 133.13L603.32 87.63L603.32 -3.37zM682.13 224.13L760.94 269.63L760.94 360.63L682.13 406.13L603.32 360.63L603.32 269.63zM918.57 87.63L997.38 133.13L997.38 224.13L918.57 269.63L839.76 224.13L839.76 133.13zM918.57 360.63L997.38 406.13L997.38 497.13L918.57 542.63L839.76 497.13L839.76 406.13zM997.38 -48.87L1076.19 -3.37L1076.19 87.63L997.38 133.13L918.57 87.63L918.57 -3.37zM1076.19 360.63L1155 406.13L1155 497.13L1076.19 542.63L997.38 497.13L997.38 406.13zM1155 -48.87L1233.81 -3.37L1233.81 87.63L1155 133.13L1076.19 87.63L1076.19 -3.37zM1233.81 360.63L1312.62 406.13L1312.62 497.13L1233.81 542.63L1155 497.13L1155 406.13zM1312.62 -48.87L1391.43 -3.37L1391.43 87.63L1312.62 133.13L1233.81 87.63L1233.81 -3.37zM1470.24 -48.87L1549.05 -3.37L1549.05 87.63L1470.24 133.13L1391.43 87.63L1391.43 -3.37z" stroke="url(#SvgjsLinearGradient2320)" stroke-width="2"></path><path d="M121.36 87.63 a9.1 9.1 0 1 0 18.2 0 a9.1 9.1 0 1 0 -18.2 0zM200.17 133.13 a9.1 9.1 0 1 0 18.2 0 a9.1 9.1 0 1 0 -18.2 0zM200.17 224.13 a9.1 9.1 0 1 0 18.2 0 a9.1 9.1 0 1 0 -18.2 0zM121.36 269.63 a9.1 9.1 0 1 0 18.2 0 a9.1 9.1 0 1 0 -18.2 0zM42.55 224.13 a9.1 9.1 0 1 0 18.2 0 a9.1 9.1 0 1 0 -18.2 0zM42.55 133.13 a9.1 9.1 0 1 0 18.2 0 a9.1 9.1 0 1 0 -18.2 0zM121.36 360.63 a9.1 9.1 0 1 0 18.2 0 a9.1 9.1 0 1 0 -18.2 0zM42.55 406.13 a9.1 9.1 0 1 0 18.2 0 a9.1 9.1 0 1 0 -18.2 0zM-36.26 360.63 a9.1 9.1 0 1 0 18.2 0 a9.1 9.1 0 1 0 -18.2 0zM-36.26 269.63 a9.1 9.1 0 1 0 18.2 0 a9.1 9.1 0 1 0 -18.2 0zM42.55 497.13 a9.1 9.1 0 1 0 18.2 0 a9.1 9.1 0 1 0 -18.2 0zM121.36 542.63 a9.1 9.1 0 1 0 18.2 0 a9.1 9.1 0 1 0 -18.2 0zM121.36 633.63 a9.1 9.1 0 1 0 18.2 0 a9.1 9.1 0 1 0 -18.2 0zM42.55 679.13 a9.1 9.1 0 1 0 18.2 0 a9.1 9.1 0 1 0 -18.2 0zM-36.26 633.63 a9.1 9.1 0 1 0 18.2 0 a9.1 9.1 0 1 0 -18.2 0zM-36.26 542.63 a9.1 9.1 0 1 0 18.2 0 a9.1 9.1 0 1 0 -18.2 0zM200.17 497.13 a9.1 9.1 0 1 0 18.2 0 a9.1 9.1 0 1 0 -18.2 0zM278.98 542.63 a9.1 9.1 0 1 0 18.2 0 a9.1 9.1 0 1 0 -18.2 0zM278.98 633.63 a9.1 9.1 0 1 0 18.2 0 a9.1 9.1 0 1 0 -18.2 0zM200.17 679.13 a9.1 9.1 0 1 0 18.2 0 a9.1 9.1 0 1 0 -18.2 0zM673.03 -48.87 a9.1 9.1 0 1 0 18.2 0 a9.1 9.1 0 1 0 -18.2 0zM751.84 -3.37 a9.1 9.1 0 1 0 18.2 0 a9.1 9.1 0 1 0 -18.2 0zM751.84 87.63 a9.1 9.1 0 1 0 18.2 0 a9.1 9.1 0 1 0 -18.2 0zM673.03 133.13 a9.1 9.1 0 1 0 18.2 0 a9.1 9.1 0 1 0 -18.2 0zM594.22 87.63 a9.1 9.1 0 1 0 18.2 0 a9.1 9.1 0 1 0 -18.2 0zM594.22 -3.37 a9.1 9.1 0 1 0 18.2 0 a9.1 9.1 0 1 0 -18.2 0zM673.03 224.13 a9.1 9.1 0 1 0 18.2 0 a9.1 9.1 0 1 0 -18.2 0zM751.84 269.63 a9.1 9.1 0 1 0 18.2 0 a9.1 9.1 0 1 0 -18.2 0zM751.84 360.63 a9.1 9.1 0 1 0 18.2 0 a9.1 9.1 0 1 0 -18.2 0zM673.03 406.13 a9.1 9.1 0 1 0 18.2 0 a9.1 9.1 0 1 0 -18.2 0zM594.22 360.63 a9.1 9.1 0 1 0 18.2 0 a9.1 9.1 0 1 0 -18.2 0zM594.22 269.63 a9.1 9.1 0 1 0 18.2 0 a9.1 9.1 0 1 0 -18.2 0zM909.47 87.63 a9.1 9.1 0 1 0 18.2 0 a9.1 9.1 0 1 0 -18.2 0zM988.28 133.13 a9.1 9.1 0 1 0 18.2 0 a9.1 9.1 0 1 0 -18.2 0zM988.28 224.13 a9.1 9.1 0 1 0 18.2 0 a9.1 9.1 0 1 0 -18.2 0zM909.47 269.63 a9.1 9.1 0 1 0 18.2 0 a9.1 9.1 0 1 0 -18.2 0zM830.66 224.13 a9.1 9.1 0 1 0 18.2 0 a9.1 9.1 0 1 0 -18.2 0zM830.66 133.13 a9.1 9.1 0 1 0 18.2 0 a9.1 9.1 0 1 0 -18.2 0zM909.47 360.63 a9.1 9.1 0 1 0 18.2 0 a9.1 9.1 0 1 0 -18.2 0zM988.28 406.13 a9.1 9.1 0 1 0 18.2 0 a9.1 9.1 0 1 0 -18.2 0zM988.28 497.13 a9.1 9.1 0 1 0 18.2 0 a9.1 9.1 0 1 0 -18.2 0zM909.47 542.63 a9.1 9.1 0 1 0 18.2 0 a9.1 9.1 0 1 0 -18.2 0zM830.66 497.13 a9.1 9.1 0 1 0 18.2 0 a9.1 9.1 0 1 0 -18.2 0zM830.66 406.13 a9.1 9.1 0 1 0 18.2 0 a9.1 9.1 0 1 0 -18.2 0zM988.28 -48.87 a9.1 9.1 0 1 0 18.2 0 a9.1 9.1 0 1 0 -18.2 0zM1067.09 -3.37 a9.1 9.1 0 1 0 18.2 0 a9.1 9.1 0 1 0 -18.2 0zM1067.09 87.63 a9.1 9.1 0 1 0 18.2 0 a9.1 9.1 0 1 0 -18.2 0zM909.47 -3.37 a9.1 9.1 0 1 0 18.2 0 a9.1 9.1 0 1 0 -18.2 0zM1067.09 360.63 a9.1 9.1 0 1 0 18.2 0 a9.1 9.1 0 1 0 -18.2 0zM1145.9 406.13 a9.1 9.1 0 1 0 18.2 0 a9.1 9.1 0 1 0 -18.2 0zM1145.9 497.13 a9.1 9.1 0 1 0 18.2 0 a9.1 9.1 0 1 0 -18.2 0zM1067.09 542.63 a9.1 9.1 0 1 0 18.2 0 a9.1 9.1 0 1 0 -18.2 0zM1145.9 -48.87 a9.1 9.1 0 1 0 18.2 0 a9.1 9.1 0 1 0 -18.2 0zM1224.71 -3.37 a9.1 9.1 0 1 0 18.2 0 a9.1 9.1 0 1 0 -18.2 0zM1224.71 87.63 a9.1 9.1 0 1 0 18.2 0 a9.1 9.1 0 1 0 -18.2 0zM1145.9 133.13 a9.1 9.1 0 1 0 18.2 0 a9.1 9.1 0 1 0 -18.2 0zM1224.71 360.63 a9.1 9.1 0 1 0 18.2 0 a9.1 9.1 0 1 0 -18.2 0zM1303.52 406.13 a9.1 9.1 0 1 0 18.2 0 a9.1 9.1 0 1 0 -18.2 0zM1303.52 497.13 a9.1 9.1 0 1 0 18.2 0 a9.1 9.1 0 1 0 -18.2 0zM1224.71 542.63 a9.1 9.1 0 1 0 18.2 0 a9.1 9.1 0 1 0 -18.2 0zM1303.52 -48.87 a9.1 9.1 0 1 0 18.2 0 a9.1 9.1 0 1 0 -18.2 0zM1382.33 -3.37 a9.1 9.1 0 1 0 18.2 0 a9.1 9.1 0 1 0 -18.2 0zM1382.33 87.63 a9.1 9.1 0 1 0 18.2 0 a9.1 9.1 0 1 0 -18.2 0zM1303.52 133.13 a9.1 9.1 0 1 0 18.2 0 a9.1 9.1 0 1 0 -18.2 0zM1461.14 -48.87 a9.1 9.1 0 1 0 18.2 0 a9.1 9.1 0 1 0 -18.2 0zM1539.95 -3.37 a9.1 9.1 0 1 0 18.2 0 a9.1 9.1 0 1 0 -18.2 0zM1539.95 87.63 a9.1 9.1 0 1 0 18.2 0 a9.1 9.1 0 1 0 -18.2 0zM1461.14 133.13 a9.1 9.1 0 1 0 18.2 0 a9.1 9.1 0 1 0 -18.2 0z" fill="url(#SvgjsLinearGradient2320)"></path><path d="M209.32 301.12L278.61 341.12L278.61 421.12L209.32 461.12L140.04 421.12L140.04 341.12zM417.17 181.12L486.46 221.12L486.46 301.12L417.17 341.12L347.89 301.12L347.89 221.12zM486.46 301.12L555.74 341.12L555.74 421.12L486.46 461.12L417.17 421.12L417.17 341.12zM694.31 -58.88L763.59 -18.88L763.59 61.12L694.31 101.12L625.03 61.12L625.03 -18.88zM832.88 181.12L902.16 221.12L902.16 301.12L832.88 341.12L763.59 301.12L763.59 221.12zM902.16 301.12L971.45 341.12L971.45 421.12L902.16 461.12L832.88 421.12L832.88 341.12zM1040.73 541.12L1110.01 581.12L1110.01 661.12L1040.73 701.12L971.45 661.12L971.45 581.12zM1248.58 -58.88L1317.87 -18.88L1317.87 61.12L1248.58 101.12L1179.3 61.12L1179.3 -18.88zM1317.87 541.12L1387.15 581.12L1387.15 661.12L1317.87 701.12L1248.58 661.12L1248.58 581.12z" stroke="url(#SvgjsLinearGradient2321)" stroke-width="2"></path></g><defs><mask id="SvgjsMask2318"><rect width="1440" height="560" fill="#ffffff"></rect></mask><linearGradient x1="50%" y1="100%" x2="50%" y2="0%" gradientUnits="userSpaceOnUse" id="SvgjsLinearGradient2319"><stop stop-color="#0e2a47" offset="0"></stop><stop stop-color="rgba(57, 21, 128, 1)" offset="1"></stop></linearGradient><linearGradient x1="720" y1="560" x2="720" y2="0" gradientUnits="userSpaceOnUse" id="SvgjsLinearGradient2320"><stop stop-color="rgba(158, 0, 129, 1)" offset="0"></stop><stop stop-color="rgba(12, 78, 144, 1)" offset="1"></stop></linearGradient><linearGradient x1="220.03199999999998" y1="780.024" x2="1219.9679999999998" y2="-220.02399999999997" gradientUnits="userSpaceOnUse" id="SvgjsLinearGradient2321"><stop stop-color="#0e2a47" offset="0"></stop><stop stop-color="rgba(0, 27, 61, 1)" offset="1"></stop></linearGradient></defs></svg>